<svg xmlns="http://www.w3.org/2000/svg" xmlns:xlink="http://www.w3.org/1999/xlink" version="1.1" fill="#ffffff" x="0px" y="0px" viewBox="0 0 100 125" style="enable-background:new 0 0 100 100;" xml:space="preserve"><g><path d="M85,50c0-4.1-3.4-7.5-7.5-7.5H61.3l-9.8-7C51,35.2,50.5,35,50,35H40c-1,0-1.9,0.6-2.3,1.5c-0.4,0.9-0.2,2,0.5,2.7l3.2,3.2   h-8.4l-9.5-4.7c-1-0.5-2.1-0.3-2.9,0.5l-5,5c-1,1-1,2.6,0,3.5l10,10c0.5,0.5,1.1,0.7,1.8,0.7h14l-3.2,3.2c-0.7,0.7-0.9,1.8-0.5,2.7   C38.1,64.4,39,65,40,65h10c0.5,0,1-0.2,1.5-0.5l9.8-7h16.2C81.6,57.5,85,54.1,85,50z M49.2,40l3.5,2.5h-4.2L46,40H49.2z M60.5,52.5   c-0.5,0-1,0.2-1.5,0.5l-9.8,7H46l3.2-3.2c0.7-0.7,0.9-1.8,0.5-2.7c-0.4-0.9-1.3-1.5-2.3-1.5h-19L21,45l2-2l8.4,4.2   c0.3,0.2,0.7,0.3,1.1,0.3h21h6.2h17.8c1.4,0,2.5,1.1,2.5,2.5s-1.1,2.5-2.5,2.5h-10H60.5z"/><path d="M83.5,20h4c1.4,0,2.5-1.1,2.5-2.5S88.9,15,87.5,15h-10c-1.4,0-2.5,1.1-2.5,2.5v10c0,1.4,1.1,2.5,2.5,2.5s2.5-1.1,2.5-2.5   v-3.9c13.3,15.1,13.3,37.8,0,52.9v-3.9c0-1.4-1.1-2.5-2.5-2.5S75,71.1,75,72.5v10c0,1.4,1.1,2.5,2.5,2.5h10c1.4,0,2.5-1.1,2.5-2.5   S88.9,80,87.5,80h-4C98.8,63,98.8,37,83.5,20z"/><path d="M22.5,70c-1.4,0-2.5,1.1-2.5,2.5v3.9C6.7,61.4,6.7,38.6,20,23.6v3.9c0,1.4,1.1,2.5,2.5,2.5s2.5-1.1,2.5-2.5v-10   c0-1.4-1.1-2.5-2.5-2.5h-10c-1.4,0-2.5,1.1-2.5,2.5s1.1,2.5,2.5,2.5h4c-15.3,17-15.3,43,0,60h-4c-1.4,0-2.5,1.1-2.5,2.5   s1.1,2.5,2.5,2.5h10c1.4,0,2.5-1.1,2.5-2.5v-10C25,71.1,23.9,70,22.5,70z"/></g></svg>