<svg xmlns="http://www.w3.org/2000/svg" xmlns:xlink="http://www.w3.org/1999/xlink" version="1.1" fill="#ffffff" x="0px" y="0px" viewBox="0 0 100 125" style="enable-background:new 0 0 100 100;" xml:space="preserve"><g><path d="M82.9,57.5c1.3-0.2,2.2-1.4,2.1-2.7c-0.1-1.3-1.2-2.3-2.5-2.3H59.4c-0.9-2.7-2.6-5-4.9-6.3L54,42.5h8.5   c1.4,0,2.5-1.1,2.5-2.5s-1.1-2.5-2.5-2.5h-9.3l-0.8-5.4C52.3,30.9,51.2,30,50,30s-2.3,0.9-2.5,2.1l-0.8,5.4h-9.3   c-1.4,0-2.5,1.1-2.5,2.5s1.1,2.5,2.5,2.5H46l-0.5,3.7c-2.3,1.3-4.1,3.5-4.9,6.3H17.5c-1.3,0-2.4,1-2.5,2.3   c-0.1,1.3,0.8,2.5,2.1,2.7l11.2,1.7c-0.5,1-0.8,2.1-0.8,3.3c0,4.1,3.4,7.5,7.5,7.5c3.8,0,6.9-2.8,7.4-6.4c1.8,2.4,4.6,3.9,7.6,3.9   s5.7-1.5,7.6-3.9c0.5,3.6,3.6,6.4,7.4,6.4c4.1,0,7.5-3.4,7.5-7.5c0-1.2-0.3-2.3-0.8-3.3L82.9,57.5z M35,65c-1.4,0-2.5-1.1-2.5-2.5   S33.6,60,35,60s2.5,1.1,2.5,2.5S36.4,65,35,65z M50,62.5c-2.8,0-5-2.8-5-6.3c0-0.9,0.1-1.7,0.4-2.4c0.4,0.7,1.2,1.2,2.1,1.2h5   c0.9,0,1.7-0.5,2.1-1.2c0.3,0.7,0.4,1.6,0.4,2.4C55,59.7,52.8,62.5,50,62.5z M65,65c-1.4,0-2.5-1.1-2.5-2.5S63.6,60,65,60   s2.5,1.1,2.5,2.5S66.4,65,65,65z"/><path d="M83.5,20h4c1.4,0,2.5-1.1,2.5-2.5S88.9,15,87.5,15h-10c-1.4,0-2.5,1.1-2.5,2.5v10c0,1.4,1.1,2.5,2.5,2.5s2.5-1.1,2.5-2.5   v-3.9c13.3,15.1,13.3,37.8,0,52.9v-3.9c0-1.4-1.1-2.5-2.5-2.5S75,71.1,75,72.5v10c0,1.4,1.1,2.5,2.5,2.5h10c1.4,0,2.5-1.1,2.5-2.5   S88.9,80,87.5,80h-4C98.8,63,98.8,37,83.5,20z"/><path d="M22.5,70c-1.4,0-2.5,1.1-2.5,2.5v3.9C6.7,61.4,6.7,38.6,20,23.6v3.9c0,1.4,1.1,2.5,2.5,2.5s2.5-1.1,2.5-2.5v-10   c0-1.4-1.1-2.5-2.5-2.5h-10c-1.4,0-2.5,1.1-2.5,2.5s1.1,2.5,2.5,2.5h4c-15.3,17-15.3,43,0,60h-4c-1.4,0-2.5,1.1-2.5,2.5   s1.1,2.5,2.5,2.5h10c1.4,0,2.5-1.1,2.5-2.5v-10C25,71.1,23.9,70,22.5,70z"/></g></svg>