<svg xmlns="http://www.w3.org/2000/svg" xmlns:xlink="http://www.w3.org/1999/xlink" version="1.1" fill="#ffffff" x="0px" y="0px" viewBox="0 0 100 125" style="enable-background:new 0 0 100 100;" xml:space="preserve"><g><path d="M83.5,20h4c1.4,0,2.5-1.1,2.5-2.5S88.9,15,87.5,15h-10c-1.4,0-2.5,1.1-2.5,2.5v10c0,1.4,1.1,2.5,2.5,2.5s2.5-1.1,2.5-2.5   v-3.9c13.3,15.1,13.3,37.8,0,52.9v-3.9c0-1.4-1.1-2.5-2.5-2.5S75,71.1,75,72.5v10c0,1.4,1.1,2.5,2.5,2.5h10c1.4,0,2.5-1.1,2.5-2.5   S88.9,80,87.5,80h-4C98.8,63,98.8,37,83.5,20z"/><path d="M22.5,70c-1.4,0-2.5,1.1-2.5,2.5v3.9C6.7,61.4,6.7,38.6,20,23.6v3.9c0,1.4,1.1,2.5,2.5,2.5s2.5-1.1,2.5-2.5v-10   c0-1.4-1.1-2.5-2.5-2.5h-10c-1.4,0-2.5,1.1-2.5,2.5s1.1,2.5,2.5,2.5h4c-15.3,17-15.3,43,0,60h-4c-1.4,0-2.5,1.1-2.5,2.5   s1.1,2.5,2.5,2.5h10c1.4,0,2.5-1.1,2.5-2.5v-10C25,71.1,23.9,70,22.5,70z"/><path d="M57.5,64v-7.9l18.9,5.1c0.7,0.2,1.5,0.1,2.1-0.4c0.6-0.4,1-1.1,1-1.9l0.5-8.8c0.1-1-0.5-2-1.5-2.4l-21-9.3V27.5   c0-4.1-3.4-7.5-7.5-7.5s-7.5,3.4-7.5,7.5v11l-18.6,9.3c-0.9,0.4-1.4,1.4-1.4,2.4l0.5,8.1c0,0.8,0.4,1.4,1,1.9   c0.6,0.4,1.4,0.6,2.1,0.4l16.4-4.4V64l-6.8,6.8c-1,1-1,2.6,0,3.5l5,5c0.7,0.7,1.7,0.9,2.6,0.6l6.7-2.2l6.7,2.2   C57,80,57.2,80,57.5,80c0.7,0,1.3-0.3,1.8-0.7l5-5c1-1,1-2.6,0-3.5L57.5,64z M56.8,74.6l-6-2c-0.3-0.1-0.5-0.1-0.8-0.1   s-0.5,0-0.8,0.1l-6,2L41,72.5l5.7-5.7c0.5-0.5,0.7-1.1,0.7-1.8V52.9c0-0.8-0.4-1.5-1-2c-0.6-0.5-1.4-0.6-2.2-0.4l-16.6,4.4   l-0.2-3.4l18.5-9.3c0.8-0.4,1.4-1.3,1.4-2.2V27.5c0-1.4,1.1-2.5,2.5-2.5s2.5,1.1,2.5,2.5V40c0,1,0.6,1.9,1.5,2.3l20.9,9.3l-0.2,4   l-19.1-5.1c-0.8-0.2-1.6,0-2.2,0.4c-0.6,0.5-1,1.2-1,2V65c0,0.7,0.3,1.3,0.7,1.8l5.7,5.7L56.8,74.6z"/></g></svg>